<svg width="512" height="512" version="1.1" xmlns="http://www.w3.org/2000/svg"><g transform="translate(256,256)scale(.8,.8)"><g><path style="fill: #8ebf3f;" d="M1.881131426843818e-14,-307.2222222222222A307.2222222222222,307.2222222222222 0 1,1 -305.12659562584656,35.82254135236021L-270.3653378963198,31.741492337534364A272.2222222222222,272.2222222222222 0 1,0 1.666825314924902e-14,-272.2222222222222Z"></path><text text-anchor="middle" dy="1em" transform="rotate(263.30400000000003)translate(0,-289.7222222222222)rotate(90)">43 s</text></g><g><path style="fill: #3fbfbb;" d="M1.6430135247116895e-14,-268.3333333333333A268.3333333333333,268.3333333333333 0 1,1 -7.546611337751392,-268.22719182643414L-6.562270728479471,-233.24103637081228A233.33333333333331,233.33333333333331 0 1,0 1.4287074127927735e-14,-233.33333333333331Z"></path><text text-anchor="middle" dy="1em" transform="rotate(358.3884)translate(0,-250.83333333333331)rotate(90)">59 m</text></g><g><path style="fill: #603fbf;" d="M1.4048956225795603e-14,-229.4444444444444A229.4444444444444,229.4444444444444 0 0,1 221.55656433074475,-59.64429468420504L187.75980028029218,-50.54601244424156A194.44444444444443,194.44444444444443 0 0,0 1.1905895106606444e-14,-194.44444444444443Z"></path><text text-anchor="middle" dy="-.5em" transform="rotate(74.93284999999999)translate(0,-211.94444444444443)rotate(-90)">04 h</text></g><g><path style="fill: #b33fbf;" d="M9.286598183153028e-15,-151.66666666666666A151.66666666666666,151.66666666666666 0 0,1 139.02209468449055,60.62701516085316L106.9400728342235,46.63616550834858A116.66666666666666,116.66666666666666 0 0,0 7.143537063963867e-15,-116.66666666666666Z"></path><text text-anchor="middle" dy="-.5em" transform="rotate(113.56183571428573)translate(0,-134.16666666666666)rotate(-90)">Tue</text></g><g><path style="fill: #bd3fbf;" d="M6.905419161831739e-15,-112.77777777777779A112.77777777777779,112.77777777777779 0 0,1 99.06759748970713,53.892840787169526L68.32248102738421,37.167476404944495A77.77777777777777,77.77777777777777 0 0,0 4.762358042642578e-15,-77.77777777777777Z"></path><text text-anchor="middle" dy="-.5em" transform="rotate(118.54622096774195)translate(0,-95.27777777777777)rotate(-90)">11 d</text></g><g><path style="fill: #3fbf93;" d="M4.524240140510449e-15,-73.88888888888889A73.88888888888889,73.88888888888889 0 1,1 -25.4182430629204,-69.37925353323475L-13.378022664694946,-36.51539659643934A38.888888888888886,38.888888888888886 0 1,0 2.381179021321289e-15,-38.888888888888886Z"></path><text text-anchor="middle" dy="1em" transform="rotate(339.87885174731184)translate(0,-56.38888888888889)rotate(90)">Dec</text></g></g></svg>